<?xml version="1.0" encoding="UTF-8"?>
<svg xmlns="http://www.w3.org/2000/svg" xmlns:xlink="http://www.w3.org/1999/xlink" width="24px" height="21px" viewBox="0 0 24 21" version="1.1">
<g id="surface1">
<path style=" stroke:none;fill-rule:nonzero;fill:rgb(0%,0%,0%);fill-opacity:1;" d="M 0.148438 0.285156 C 0.238281 0.445312 1.460938 2.589844 2.859375 5.046875 C 4.257812 7.5 5.429688 9.496094 5.464844 9.46875 C 5.5 9.449219 5.628906 9.253906 5.746094 9.03125 L 5.964844 8.640625 L 3.5 4.324219 L 1.039062 0 L -0.0195312 0 Z M 0.148438 0.285156 "/>
<path style=" stroke:none;fill-rule:nonzero;fill:rgb(0%,0%,0%);fill-opacity:1;" d="M 5.570312 0.0625 C 6.546875 1.804688 8.058594 4.429688 8.136719 4.519531 C 8.226562 4.617188 8.289062 4.566406 8.480469 4.234375 C 8.605469 4.023438 8.710938 3.789062 8.710938 3.738281 C 8.710938 3.675781 8.253906 2.8125 7.6875 1.816406 L 6.667969 0 L 6.097656 0 C 5.789062 0 5.550781 0.0273438 5.570312 0.0625 Z M 5.570312 0.0625 "/>
<path style=" stroke:none;fill-rule:nonzero;fill:rgb(0%,0%,0%);fill-opacity:1;" d="M 8.894531 5.167969 C 7.136719 8.265625 5.980469 10.382812 6 10.480469 C 6.042969 10.632812 11.832031 20.8125 11.945312 20.929688 C 12.007812 20.992188 18.035156 10.535156 18.035156 10.382812 C 18.035156 10.347656 17.804688 9.929688 17.523438 9.457031 C 17.242188 8.976562 16.722656 8.078125 16.371094 7.457031 C 16.019531 6.832031 15.695312 6.34375 15.652344 6.371094 C 15.554688 6.425781 15.21875 7.074219 15.21875 7.199219 C 15.21875 7.242188 15.597656 7.945312 16.066406 8.757812 C 16.523438 9.574219 16.890625 10.285156 16.875 10.359375 C 16.8125 10.617188 12.007812 18.945312 11.945312 18.882812 C 11.921875 18.847656 10.792969 16.90625 9.464844 14.558594 L 7.039062 10.304688 L 9.421875 6.105469 C 10.734375 3.800781 11.859375 1.859375 11.921875 1.796875 C 12.007812 1.699219 12.183594 1.957031 12.851562 3.148438 C 13.3125 3.960938 13.699219 4.617188 13.722656 4.628906 C 13.75 4.628906 13.882812 4.429688 14.015625 4.183594 L 14.261719 3.746094 L 13.1875 1.867188 C 12.464844 0.605469 12.078125 0 11.972656 0 C 11.875 0.0078125 10.875 1.691406 8.894531 5.167969 Z M 8.894531 5.167969 "/>
<path style=" stroke:none;fill-rule:nonzero;fill:rgb(0%,0%,0%);fill-opacity:1;" d="M 17.394531 0.0625 C 17.367188 0.105469 16.328125 1.914062 15.070312 4.09375 C 13.8125 6.273438 12.597656 8.363281 12.386719 8.757812 L 11.980469 9.457031 L 11.121094 7.894531 C 10.636719 7.03125 10.214844 6.335938 10.179688 6.34375 C 10.136719 6.351562 10.003906 6.558594 9.878906 6.78125 L 9.652344 7.207031 L 10.601562 8.871094 C 11.128906 9.796875 11.640625 10.695312 11.734375 10.875 C 11.839844 11.0625 11.945312 11.210938 11.972656 11.210938 C 12.007812 11.210938 13.347656 8.90625 14.957031 6.09375 L 17.875 0.980469 L 20.121094 0.980469 C 21.351562 0.980469 22.347656 1.015625 22.328125 1.050781 C 22.320312 1.09375 21.335938 2.820312 20.15625 4.894531 L 18 8.65625 L 18.21875 9.058594 C 18.335938 9.28125 18.464844 9.457031 18.519531 9.457031 C 18.597656 9.449219 23.929688 0.203125 23.929688 0.0625 C 23.929688 0.0273438 22.46875 0 20.683594 0 C 18.886719 0 17.410156 0.0273438 17.394531 0.0625 Z M 17.394531 0.0625 "/>
</g>
</svg>
