<?xml version="1.0" standalone="no"?>
<!DOCTYPE svg PUBLIC "-//W3C//DTD SVG 20010904//EN"
 "http://www.w3.org/TR/2001/REC-SVG-20010904/DTD/svg10.dtd">
<svg version="1.0" xmlns="http://www.w3.org/2000/svg"
 width="273.000000pt" height="236.000000pt" viewBox="0 0 273.000000 236.000000"
 preserveAspectRatio="xMidYMid meet">

<g transform="translate(0.000000,236.000000) scale(0.100000,-0.100000)"
fill="#000000" stroke="none">
<path d="M17 2328 c10 -18 149 -259 308 -535 159 -276 292 -500 296 -497 4 2
19 24 32 49 l25 44 -280 485 -280 486 -60 0 -60 0 19 -32z"/>
<path d="M633 2353 c111 -196 283 -491 292 -501 10 -11 17 -5 39 32 14 24 26
50 26 56 0 7 -52 104 -116 216 l-116 204 -65 0 c-35 0 -62 -3 -60 -7z"/>
<path d="M1011 1779 c-200 -348 -331 -586 -329 -597 5 -17 663 -1161 676
-1174 7 -7 692 1168 692 1185 0 4 -26 51 -58 104 -32 54 -91 155 -131 225 -40
70 -77 125 -82 122 -11 -6 -49 -79 -49 -93 0 -5 43 -84 96 -175 52 -92 94
-172 92 -180 -7 -29 -553 -965 -560 -958 -3 4 -131 222 -282 486 l-276 478
271 472 c149 259 277 477 284 484 10 11 30 -18 106 -152 52 -91 96 -165 99
-166 3 0 18 22 33 50 l28 49 -122 211 c-82 142 -126 210 -138 210 -11 -1 -125
-190 -350 -581z"/>
<path d="M1977 2353 c-3 -5 -121 -208 -264 -453 -143 -245 -281 -480 -305
-524 l-46 -79 -98 176 c-55 97 -103 175 -107 174 -5 -1 -20 -24 -34 -49 l-26
-48 108 -187 c60 -104 118 -205 129 -225 12 -21 24 -38 27 -38 4 0 156 259
339 575 l332 575 255 0 c140 0 253 -4 251 -8 -1 -5 -113 -199 -247 -432 l-245
-423 25 -45 c13 -25 28 -45 34 -45 9 1 615 1040 615 1056 0 4 -166 7 -369 7
-204 0 -372 -3 -374 -7z"/>
</g>
</svg>
