<?xml version="1.0" encoding="UTF-8"?>
<svg xmlns="http://www.w3.org/2000/svg" xmlns:xlink="http://www.w3.org/1999/xlink" width="24px" height="21px" viewBox="0 0 23 21" version="1.1">
<g id="surface1">
<path style=" stroke:none;fill-rule:nonzero;fill:rgb(50.980392%,27.843137%,89.803922%);fill-opacity:1;" d="M 17.371094 6.496094 C 16.949219 6.253906 16.410156 6.253906 15.933594 6.496094 L 12.578125 8.511719 L 10.300781 9.796875 L 7.007812 11.8125 C 6.589844 12.058594 6.050781 12.058594 5.570312 11.8125 L 2.996094 10.226562 C 2.574219 9.980469 2.277344 9.492188 2.277344 8.941406 L 2.277344 5.886719 C 2.277344 5.394531 2.515625 4.90625 2.996094 4.601562 L 5.570312 3.074219 C 5.988281 2.828125 6.527344 2.828125 7.007812 3.074219 L 9.582031 4.664062 C 10.003906 4.90625 10.300781 5.394531 10.300781 5.945312 L 10.300781 7.964844 L 12.578125 6.617188 L 12.578125 4.539062 C 12.578125 4.050781 12.339844 3.5625 11.859375 3.257812 L 7.066406 0.382812 C 6.648438 0.140625 6.109375 0.140625 5.628906 0.382812 L 0.71875 3.316406 C 0.238281 3.5625 0 4.050781 0 4.539062 L 0 10.285156 C 0 10.773438 0.238281 11.265625 0.71875 11.570312 L 5.570312 14.441406 C 5.988281 14.6875 6.527344 14.6875 7.007812 14.441406 L 10.300781 12.488281 L 12.578125 11.140625 L 15.871094 9.1875 C 16.292969 8.941406 16.832031 8.941406 17.308594 9.1875 L 19.886719 10.714844 C 20.304688 10.957031 20.605469 11.449219 20.605469 11.996094 L 20.605469 15.054688 C 20.605469 15.542969 20.363281 16.03125 19.886719 16.335938 L 17.371094 17.863281 C 16.949219 18.109375 16.410156 18.109375 15.933594 17.863281 L 13.355469 16.335938 C 12.9375 16.09375 12.636719 15.605469 12.636719 15.054688 L 12.636719 13.097656 L 10.363281 14.441406 L 10.363281 16.460938 C 10.363281 16.949219 10.601562 17.4375 11.082031 17.742188 L 15.933594 20.617188 C 16.351562 20.859375 16.890625 20.859375 17.371094 20.617188 L 22.222656 17.742188 C 22.640625 17.5 22.941406 17.007812 22.941406 16.460938 L 22.941406 10.652344 C 22.941406 10.164062 22.699219 9.675781 22.222656 9.371094 Z M 17.371094 6.496094 "/>
</g>
</svg>
